<svg id="Ebene_1" data-name="Ebene 1" xmlns="http://www.w3.org/2000/svg" viewBox="0 0 297.64 141.76"><defs><style>.cls-1{fill:#080e0f;}.cls-2{fill:#fff;}.cls-3{fill:#e30613;}.cls-4{fill:#abb2b6;}</style></defs><rect class="cls-1" x="155.91" width="141.73" height="141.76"/><path class="cls-2" d="M163.38,16.44c0-.06,0-1.54-.08-2.49h3.84l.1,2.05a4.73,4.73,0,0,1,4.43-2.37,4.15,4.15,0,0,1,4.16,2.56c.29.84.38,1.54.38,4.08v7.37h-4.08V19.16a3.19,3.19,0,0,0-.22-1.48A2.05,2.05,0,0,0,170,16.52a2.48,2.48,0,0,0-2.08,1.05,3.77,3.77,0,0,0-.48,2.08v8h-4Z"/><path class="cls-2" d="M184.93,21.84c0,.89,0,3.64,2.78,3.64a2.22,2.22,0,0,0,2.37-1.89h3.65a4.58,4.58,0,0,1-1.3,3,6.63,6.63,0,0,1-4.77,1.59,6.76,6.76,0,0,1-4.81-1.7,7.41,7.41,0,0,1-1.75-5.32c0-2.21.54-4.86,2.83-6.45a6.84,6.84,0,0,1,3.83-1.13,5.84,5.84,0,0,1,5.51,3.29,10.15,10.15,0,0,1,.81,5ZM190,19.32c0-.62-.05-3.05-2.37-3.05-1.76,0-2.49,1.46-2.57,3.05Z"/><path class="cls-2" d="M202.53,14v8.12c0,1.19,0,3,2.14,3,2.56,0,2.56-1.92,2.56-4.24V14h4.1v9c.06,2.94.08,3.29.08,3.64s.06.62.11,1h-3.89l-.13-1.81a4.48,4.48,0,0,1-4,2.16,5.2,5.2,0,0,1-4.11-1.84,6.26,6.26,0,0,1-.89-3.67V14Z"/><path class="cls-2" d="M220.22,21.84c0,.89,0,3.64,2.78,3.64a2.22,2.22,0,0,0,2.37-1.89H229a4.58,4.58,0,0,1-1.3,3,6.64,6.64,0,0,1-4.78,1.59,6.75,6.75,0,0,1-4.8-1.7,7.42,7.42,0,0,1-1.76-5.32c0-2.21.54-4.86,2.84-6.45a6.84,6.84,0,0,1,3.83-1.13,5.84,5.84,0,0,1,5.51,3.29,10.15,10.15,0,0,1,.81,5Zm5.07-2.52c0-.62,0-3.05-2.37-3.05-1.76,0-2.49,1.46-2.57,3.05Z"/><path class="cls-2" d="M163.41,45.63c0-.87,0-1.7-.13-2.57h3.86l.13,1.76a4.67,4.67,0,0,1,4.21-2c3.13,0,4,1.91,4.29,2.56a4.53,4.53,0,0,1,4.38-2.54A4.45,4.45,0,0,1,184.3,45a7.83,7.83,0,0,1,.68,4v7.69h-4v-8c0-1.46-.22-3.08-2.3-3.08-2.4,0-2.45,2.24-2.45,4.26v6.83h-4V48.6c0-1.06,0-3-2.24-3-2.51,0-2.51,2.16-2.51,3.08v8h-4Z"/><path class="cls-2" d="M193.92,50.89c0,.89,0,3.64,2.78,3.64a2.23,2.23,0,0,0,2.38-1.88h3.64a4.53,4.53,0,0,1-1.3,3,6.59,6.59,0,0,1-4.77,1.6,6.82,6.82,0,0,1-4.81-1.7,7.43,7.43,0,0,1-1.75-5.32c0-2.21.54-4.86,2.83-6.45a6.85,6.85,0,0,1,3.83-1.14,5.85,5.85,0,0,1,5.51,3.3,10.13,10.13,0,0,1,.81,5ZM199,48.38c0-.62-.05-3.05-2.37-3.05-1.76,0-2.48,1.46-2.57,3.05Z"/><path class="cls-2" d="M216.62,37.21h4V54.48c0,.81,0,1.7.1,2.21h-4l-.11-2a3.64,3.64,0,0,1-1.38,1.54,4.74,4.74,0,0,1-2.64.7c-3.65,0-5.81-2.51-5.81-6.77,0-4.51,2.46-7.32,6-7.32a4.35,4.35,0,0,1,3.83,1.87Zm-3,17.16a2.87,2.87,0,0,0,2.53-1.54,7.15,7.15,0,0,0,.65-3.21c0-2.67-1.16-4.13-3-4.13-2.67,0-3,3.21-3,4.59C210.82,52.35,211.58,54.37,213.58,54.37Z"/><path class="cls-2" d="M225.86,37.21h4.27v3.48h-4.27ZM226,43h4V56.69h-4Z"/><path class="cls-2" d="M238.6,50.89c0,.89,0,3.64,2.78,3.64a2.23,2.23,0,0,0,2.38-1.88h3.64a4.56,4.56,0,0,1-1.29,3,6.6,6.6,0,0,1-4.78,1.6,6.79,6.79,0,0,1-4.8-1.7,7.39,7.39,0,0,1-1.76-5.32c0-2.21.54-4.86,2.84-6.45a6.82,6.82,0,0,1,3.83-1.14A5.87,5.87,0,0,1,247,45.9a10.1,10.1,0,0,1,.8,5Zm5.08-2.51c0-.62-.06-3.05-2.38-3.05-1.75,0-2.48,1.46-2.56,3.05Z"/><path class="cls-2" d="M252.35,45.49c0-.05,0-1.54-.08-2.48h3.83l.11,2.05a4.72,4.72,0,0,1,4.42-2.38,4.14,4.14,0,0,1,4.16,2.57c.3.84.38,1.54.38,4.07v7.37h-4.08V48.22a3.37,3.37,0,0,0-.21-1.49,2.1,2.1,0,0,0-1.95-1.16,2.47,2.47,0,0,0-2.07,1.06,3.63,3.63,0,0,0-.49,2.07v8h-4Z"/><path d="M91,51.1c.52.94,2.94,5.25,7.77,5.25,2.2,0,6.09-1,8.61-5.67,1.26-2.42,1.89-5,1.89-10.71,0-5-.42-10-4.31-13.34a8.41,8.41,0,0,0-5.56-2.1,8.1,8.1,0,0,0-5.46,2c-5.36,4.3-4.83,13.33-4.83,14.49.1,3.46.42,7.14,1.89,10.08"/><path class="cls-1" d="M90.14,0l.07,21.59c5-4.72,8.72-8.08,16-8.08a19.81,19.81,0,0,1,9.56,2.41c5,2.73,12.49,9.67,12.49,23.95,0,2.62-.2,10.92-4.61,17.85a21.89,21.89,0,0,1-18.07,9.77,19.7,19.7,0,0,1-5.46-.84c-4.72-1.37-7.13-4-10.5-7.77l-.42,7.35-18.58-.11c.42-8.4.74-17,.74-25.62,0-6.09-.11-12.18-.11-18.27-.08-7.46,0-14.85,0-22.23H0V141.75H141.73V0H90.14"/><path class="cls-2" d="M71.21,22.22c0,6.09.11,12.18.11,18.27,0,8.61-.32,17.22-.74,25.62l18.58.11.42-7.35c3.37,3.78,5.78,6.4,10.5,7.77a19.7,19.7,0,0,0,5.46.84,21.89,21.89,0,0,0,18.07-9.77c4.41-6.93,4.61-15.22,4.61-17.85,0-14.28-7.45-21.21-12.49-23.94a19.81,19.81,0,0,0-9.56-2.41c-7.24,0-10.92,3.36-16,8.08L90.14,0H71.2c0,7.38-.07,14.77,0,22.22Zm22.68,4.31a8.1,8.1,0,0,1,5.46-2,8.41,8.41,0,0,1,5.56,2.1c3.89,3.36,4.31,8.3,4.31,13.34,0,5.67-.63,8.29-1.89,10.71-2.52,4.72-6.41,5.67-8.61,5.67-4.83,0-7.25-4.31-7.77-5.25-1.47-2.94-1.79-6.62-1.89-10.08,0-1.16-.53-10.19,4.83-14.49"/><path class="cls-3" d="M139.56,111.56c-1-2.9-2-5.8-2.9-8.83-1.9-5.56-3.41-11.24-5-16.92H106.1c-2.65,7.7-5.43,15.53-7.83,23.36-2,6.44-3.79,13-5.56,19.57-4-19.32-5.55-24.12-11.61-42.93H56.48l19.78,55.92h28.83l5.93-16A139.76,139.76,0,0,0,117.21,102c.88,4.8,1.9,9.47,3.16,14.27,1.13,4.29,2.65,8.58,4,12.75s2.76,8.47,4.1,12.74h13.22V118.39c-.67-2.44-1.32-4.38-2.17-6.83"/><path class="cls-4" d="M33.28,60.32,22.16,57.26c-5.38-1.46-8.43-2.32-8.43-6.47,0-3.79,3.66-6.11,8.55-6.11,2.81,0,8.31.49,8.8,7.33H47.57C47.09,39.67,36.82,33.8,24.11,33.8,13,33.8,4.27,37.36,0,43.55V62.73c3.51,4.8,9.39,6.5,12.75,7.48L24,73.27c7.09,2,8.55,4.15,8.55,7,0,3.67-3.05,7.33-9.53,7.33-7.57,0-10-4.52-10.26-8.43H0V90.9l.29.33c5.62,5.86,13.2,7.57,21.14,7.57,19.18,0,28.34-10.63,28.34-21.26,0-8.43-5.25-14.17-16.49-17.22"/></svg>